#!OML:ASF H:\Dans Jumps\Project 1\Capture day 1\Session 1\subject.ASF
:FULLY-SPECIFIED
:DEGREES
249
root 0.183515 17.2187 -14.7481 10.1171 -1.12016 -2.18819
lowerback 3.5969 -0.234963 1.13431
upperback 4.74464 -0.341222 2.07964
thorax 2.87007 -0.173951 1.50736
lowerneck -13.7392 0.400125 -2.14209
upperneck 22.7191 1.0303 0.151859
head 9.41759 0.309783 0.536773
rclavicle -3.77691e-015 2.98177e-014
rhumerus -25.0109 -18.7674 -76.6376
rradius 24.5502
rwrist 30.7267
rhand -20.9709 -26.5418
rfingers 7.12502
rthumb 5.40246 -56.4529
lclavicle -3.77691e-015 2.98177e-014
lhumerus -23.8807 -0.707708 86.4449
lradius 19.7275
lwrist 9.6534
lhand -27.8458 -5.84209
lfingers 7.12502
lthumb -1.23703 24.1341
rfemur -26.6502 -1.74401 19.6779
rtibia 33.0353
rfoot -15.9024 -1.28042
rtoes 3.89912
lfemur -26.2031 7.90553 -17.1958
ltibia 33.5445
lfoot -14.0685 6.51645
ltoes -9.16186
250
root 0.185852 17.1932 -14.7796 10.3168 -1.17672 -2.27788
lowerback 3.90517 -0.214425 1.19051
upperback 4.80677 -0.307427 2.11293
thorax 2.76129 -0.156184 1.51095
lowerneck -13.8053 0.407555 -2.1157
upperneck 22.3364 1.04589 0.0968522
head 9.29664 0.316942 0.513725
rclavicle -1.49089e-015 2.38542e-015
rhumerus -25.203 -18.6094 -76.547
rradius 24.6293
rwrist 30.5493
rhand -20.9721 -26.5199
rfingers 7.12502
rthumb 5.40132 -56.431
lclavicle -1.49089e-015 2.38542e-015
lhumerus -24.2276 -0.931606 86.4897
lradius 19.9099
lwrist 10.2032
lhand -28.1235 -6.14987
lfingers 7.12502
lthumb -1.50518 23.8246
rfemur -27.3625 -1.82795 19.7984
rtibia 33.6936
rfoot -16.0783 -1.17606
rtoes 3.75015
lfemur -26.9492 8.07319 -17.1681
ltibia 34.307
lfoot -14.2886 6.51688
ltoes -9.23014
251
root 0.187845 17.166 -14.8119 10.5238 -1.24544 -2.3521
lowerback 4.2174 -0.189128 1.221
upperback 4.86919 -0.267257 2.14177
thorax 2.65075 -0.135986 1.52402
lowerneck -13.8587 0.414471 -2.09463
upperneck 21.933 1.05906 0.05071
head 9.16664 0.323773 0.494292
rclavicle 7.95139e-016 1.23246e-014
rhumerus -25.4141 -18.437 -76.4557
rradius 24.7032
rwrist 30.3607
rhand -20.9871 -26.491
rfingers 7.12502
rthumb 5.38681 -56.4025
lclavicle 7.95139e-016 1.23246e-014
lhumerus -24.5789 -1.15642 86.5345
lradius 20.0642
lwrist 10.7554
lhand -28.4094 -6.51424
lfingers 7.12502
lthumb -1.78127 23.4581
rfemur -28.1089 -1.89927 19.9034
rtibia 34.3898
rfoot -16.2644 -1.08115
rtoes 3.56501
lfemur -27.7079 8.23436 -17.1571
ltibia 35.076
lfoot -14.5087 6.53248
ltoes -9.30323
252
root 0.189511 17.1374 -14.8445 10.7375 -1.32471 -2.40551
lowerback 4.5275 -0.160195 1.2223
upperback 4.93571 -0.222775 2.16316
thorax 2.54582 -0.114412 1.54541
lowerneck -13.9068 0.421212 -2.08025
upperneck 21.5119 1.06992 0.0176656
head 9.03015 0.33062 0.480183
rclavicle 5.46658e-015 8.74653e-015
rhumerus -25.6336 -18.2756 -76.3645
rradius 24.7596
rwrist 30.1845
rhand -21.0237 -26.4525
rfingers 7.12502
rthumb 5.35144 -56.3649
lclavicle 5.46658e-015 8.74653e-015
lhumerus -24.9258 -1.38597 86.578
lradius 20.182
lwrist 11.2989
lhand -28.6701 -6.86238
lfingers 7.12502
lthumb -2.03314 23.1077
rfemur -28.885 -1.95997 19.9862
rtibia 35.1231
rfoot -16.4656 -0.99339
rtoes 3.37063
lfemur -28.4765 8.38902 -17.1695
ltibia 35.851
lfoot -14.7298 6.56417
ltoes -9.38502
253
root 0.19091 17.1071 -14.8778 10.954 -1.40785 -2.43763
lowerback 4.84452 -0.129936 1.19664
upperback 5.00014 -0.176899 2.17762
thorax 2.43504 -0.0928383 1.57445
lowerneck -13.9564 0.426513 -2.07257
upperneck 21.0917 1.07751 -0.00369736
head 8.89483 0.336676 0.470868
rclavicle -1.88845e-015 9.54166e-015
rhumerus -25.8774 -18.1047 -76.2697
rradius 24.8054
rwrist 30.0263
rhand -21.0774 -26.3963
rfingers 7.12502
rthumb 5.29959 -56.31
lclavicle -1.88845e-015 9.54166e-015
lhumerus -25.287 -1.61013 86.6196
lradius 20.2771
lwrist 11.8045
lhand -28.8663 -7.08835
lfingers 7.12502
lthumb -2.22255 22.8798
rfemur -29.6852 -2.01725 20.0461
rtibia 35.8912
rfoot -16.6811 -0.909703
rtoes 3.18809
lfemur -29.2561 8.54006 -17.207
ltibia 36.6339
lfoot -14.9501 6.60648
ltoes -9.5003
254
root 0.19184 17.0751 -14.9118 11.1723 -1.48936 -2.45401
lowerback 5.16784 -0.0999355 1.15074
upperback 5.06685 -0.131966 2.18574
thorax 2.32328 -0.0722187 1.60805
lowerneck -14.0157 0.430647 -2.06698
upperneck 20.6723 1.08184 -0.0149718
head 8.76219 0.342098 0.465034
rclavicle -3.97569e-016 1.86858e-014
rhumerus -26.14 -17.936 -76.1754
rradius 24.8485
rwrist 29.8837
rhand -21.13 -26.342
rfingers 7.12502
rthumb 5.24881 -56.257
lclavicle -3.97569e-016 1.86858e-014
lhumerus -25.6511 -1.82896 86.6546
lradius 20.3458
lwrist 12.2588
lhand -28.9982 -7.22957
lfingers 7.12502
lthumb -2.34998 22.7372
rfemur -30.5063 -2.067 20.09
rtibia 36.6911
rfoot -16.9092 -0.839528
rtoes 3.02818
lfemur -30.0484 8.69043 -17.2626
ltibia 37.4278
lfoot -15.1735 6.65043
ltoes -9.62755
